<mxfile host="app.diagrams.net" modified="2022-09-25T04:57:47.581Z" agent="5.0 (Macintosh; Intel Mac OS X 10_15_7) AppleWebKit/537.36 (KHTML, like Gecko) Chrome/105.0.0.0 Safari/537.36" etag="4oSQDfxm_rmBnc4lyI5n" version="20.3.2" type="github">
  <diagram id="gUfImMvI6HA2ibjVi8Yo" name="第 1 页">
    <mxGraphModel dx="1426" dy="794" grid="1" gridSize="10" guides="1" tooltips="1" connect="1" arrows="1" fold="1" page="1" pageScale="1" pageWidth="827" pageHeight="1169" math="0" shadow="0">
      <root>
        <mxCell id="0" />
        <mxCell id="1" parent="0" />
        <mxCell id="FC1-o9Rjn76wEDgKJpTY-1" value="" style="rounded=0;whiteSpace=wrap;html=1;" vertex="1" parent="1">
          <mxGeometry x="70" y="200" width="230" height="530" as="geometry" />
        </mxCell>
        <mxCell id="FC1-o9Rjn76wEDgKJpTY-2" value="xxxx" style="rounded=0;whiteSpace=wrap;html=1;" vertex="1" parent="1">
          <mxGeometry x="125" y="230" width="120" height="60" as="geometry" />
        </mxCell>
        <mxCell id="FC1-o9Rjn76wEDgKJpTY-3" value="事务" style="swimlane;" vertex="1" parent="1">
          <mxGeometry x="85" y="310" width="200" height="310" as="geometry" />
        </mxCell>
        <mxCell id="FC1-o9Rjn76wEDgKJpTY-4" value="创建订单" style="rounded=0;whiteSpace=wrap;html=1;" vertex="1" parent="1">
          <mxGeometry x="125" y="360" width="120" height="60" as="geometry" />
        </mxCell>
        <mxCell id="FC1-o9Rjn76wEDgKJpTY-6" value="RPC调用" style="shape=process;whiteSpace=wrap;html=1;backgroundOutline=1;" vertex="1" parent="1">
          <mxGeometry x="125" y="450" width="120" height="60" as="geometry" />
        </mxCell>
        <mxCell id="FC1-o9Rjn76wEDgKJpTY-7" value="提交事务" style="rounded=0;whiteSpace=wrap;html=1;" vertex="1" parent="1">
          <mxGeometry x="125" y="535" width="120" height="60" as="geometry" />
        </mxCell>
        <mxCell id="FC1-o9Rjn76wEDgKJpTY-8" value="yyy" style="rounded=0;whiteSpace=wrap;html=1;" vertex="1" parent="1">
          <mxGeometry x="125" y="640" width="120" height="60" as="geometry" />
        </mxCell>
      </root>
    </mxGraphModel>
  </diagram>
</mxfile>
